# xmcd
#
# Track frame offsets:
#	150
#	13182
#	22839
#	33759
#	43646
#	53004
#	69961
#	84190
#	97690
#	108512
#	118540
#	131777
#
# Disc length: 1910 seconds
#
# Revision: 0
# Processed by: cddbd v1.5.2PL0 Copyright (c) Steve Scherf et al.
# Submitted via: dBpowerAMP V4.0
#
DISCID=8507740c
DTITLE=Larry Sparks and the Lonesome Ramblers - Thank You Lord
DYEAR=1900
DGENRE=Gospel
TTITLE0=Thank You Lord
TTITLE1=Where We'll Never Say Farewell
TTITLE2=King Jesus
TTITLE3=Weeping Willow Tree
TTITLE4=Jacob's Vision
TTITLE5=God Shall Wipe Away All Tears
TTITLE6=I've Just Seen the Rock of Ages
TTITLE7=Traveling the Highway Home
TTITLE8=I'll Meet You in the Morning
TTITLE9=Sunny Side
TTITLE10=You're Drifting Away
TTITLE11=I'm Gonna Sing, Sing, Sing
EXTD=Bluegrass Gospel\n\nSubmitted by Rich Price
EXTT0=
EXTT1=
EXTT2=
EXTT3=
EXTT4=
EXTT5=
EXTT6=
EXTT7=
EXTT8=
EXTT9=
EXTT10=
EXTT11=
PLAYORDER=
